<?xml version="1.0" standalone="no"?>
<!DOCTYPE svg PUBLIC "-//W3C//DTD SVG 20010904//EN"
 "http://www.w3.org/TR/2001/REC-SVG-20010904/DTD/svg10.dtd">
<svg version="1.0" xmlns="http://www.w3.org/2000/svg"
 width="700.000000pt" height="700.000000pt" viewBox="0 0 700.000000 700.000000"
 preserveAspectRatio="xMidYMid meet">
<metadata>
Created by potrace 1.14, written by Peter Selinger 2001-2017
</metadata>
<g transform="translate(0.000000,700.000000) scale(0.100000,-0.100000)"
fill="#000000" stroke="none">
<path d="M3339 6996 c-2 -2 -33 -6 -69 -9 -174 -15 -445 -82 -577 -143 -17 -7
-34 -14 -37 -14 -13 0 -183 -83 -240 -117 -399 -239 -670 -523 -873 -914 -88
-169 -174 -414 -197 -559 -3 -19 -7 -44 -10 -55 -2 -11 -7 -45 -11 -75 -4 -30
-10 -64 -12 -75 -4 -15 -14 -643 -13 -766 0 -8 -84 69 -187 173 -196 196 -216
209 -279 194 -48 -12 -171 -159 -239 -283 -34 -64 -92 -201 -101 -243 -63
-288 -49 -515 48 -750 75 -181 132 -252 477 -595 l280 -281 2 -780 c1 -812 3
-855 45 -994 21 -69 91 -213 134 -276 50 -71 167 -191 235 -239 111 -79 267
-151 365 -169 19 -3 46 -9 60 -13 44 -13 2585 -15 2680 -3 226 29 416 124 581
289 119 119 193 239 248 401 45 131 48 190 49 1008 l1 773 282 282 c155 155
309 318 341 361 73 97 148 251 182 371 93 329 26 708 -175 974 -104 138 -141
171 -194 171 -45 0 -75 -24 -254 -204 -96 -97 -176 -174 -178 -172 -3 2 -5
150 -5 328 -1 336 -9 474 -33 588 -6 28 -12 61 -21 105 -37 201 -159 490 -301
714 -156 244 -413 499 -659 652 -38 24 -79 50 -90 56 -48 31 -248 124 -337
157 -126 47 -305 93 -437 112 -91 14 -471 29 -481 20z"/>
</g>
</svg>
